<svg xmlns="http://www.w3.org/2000/svg" viewBox="0 0 800 520"><defs><linearGradient id="g" x1="0" y1="0" x2="0" y2="1"><stop offset="0" stop-color="#f7dcb8"/><stop offset="1" stop-color="#fff8ea"/></linearGradient></defs><rect width="800" height="520" fill="url(#g)"/><circle cx="650" cy="90" r="42" fill="#fff" opacity=".7"/><ellipse cx="160" cy="100" rx="70" ry="18" fill="#fff" opacity=".8"/><ellipse cx="260" cy="120" rx="50" ry="14" fill="#fff" opacity=".7"/><rect y="410" width="800" height="110" fill="#7fae7a"/><rect y="440" width="800" height="80" fill="#8a8f93"/><rect x="230" y="70" width="340" height="360" fill="#c98a3d"/><rect x="220" y="60" width="360" height="18" fill="#0e5b4a"/><rect x="255" y="100" width="50" height="40" rx="2" fill="#fdf3d0" opacity=".9"/><rect x="335" y="100" width="50" height="40" rx="2" fill="#fdf3d0" opacity=".9"/><rect x="415" y="100" width="50" height="40" rx="2" fill="#fdf3d0" opacity=".9"/><rect x="495" y="100" width="50" height="40" rx="2" fill="#fdf3d0" opacity=".9"/><rect x="255" y="164" width="50" height="40" rx="2" fill="#fdf3d0" opacity=".9"/><rect x="335" y="164" width="50" height="40" rx="2" fill="#fdf3d0" opacity=".9"/><rect x="415" y="164" width="50" height="40" rx="2" fill="#fdf3d0" opacity=".9"/><rect x="495" y="164" width="50" height="40" rx="2" fill="#fdf3d0" opacity=".9"/><rect x="255" y="228" width="50" height="40" rx="2" fill="#fdf3d0" opacity=".9"/><rect x="335" y="228" width="50" height="40" rx="2" fill="#fdf3d0" opacity=".9"/><rect x="415" y="228" width="50" height="40" rx="2" fill="#fdf3d0" opacity=".9"/><rect x="495" y="228" width="50" height="40" rx="2" fill="#fdf3d0" opacity=".9"/><rect x="255" y="292" width="50" height="40" rx="2" fill="#fdf3d0" opacity=".9"/><rect x="335" y="292" width="50" height="40" rx="2" fill="#fdf3d0" opacity=".9"/><rect x="415" y="292" width="50" height="40" rx="2" fill="#fdf3d0" opacity=".9"/><rect x="495" y="292" width="50" height="40" rx="2" fill="#fdf3d0" opacity=".9"/><rect x="255" y="356" width="50" height="40" rx="2" fill="#fdf3d0" opacity=".9"/><rect x="335" y="356" width="50" height="40" rx="2" fill="#fdf3d0" opacity=".9"/><rect x="415" y="356" width="50" height="40" rx="2" fill="#fdf3d0" opacity=".9"/><rect x="495" y="356" width="50" height="40" rx="2" fill="#fdf3d0" opacity=".9"/><rect x="375" y="370" width="50" height="60" fill="#0e5b4a"/></svg>